<?xml version="1.0" encoding="utf-8"?>
<!-- Generator: Adobe Illustrator 15.0.0, SVG Export Plug-In . SVG Version: 6.00 Build 0)  -->
<!DOCTYPE svg PUBLIC "-//W3C//DTD SVG 1.1//EN" "http://www.w3.org/Graphics/SVG/1.1/DTD/svg11.dtd">
<svg version="1.1" id="Calque_1" xmlns="http://www.w3.org/2000/svg" xmlns:xlink="http://www.w3.org/1999/xlink" x="0px" y="0px"
	 width="194.493px" height="62.271px" viewBox="0 0 194.493 62.271" enable-background="new 0 0 194.493 62.271"
	 xml:space="preserve">
<g>
	<g>
		<path fill="#00A99D" stroke="#00665C" stroke-width="5" stroke-miterlimit="10" d="M6.53,52.919
			C-9.389,39.808,25.47-12.155,48.115,6.496C63.222,18.938,25.36,68.429,6.53,52.919z"/>
		<path fill="#B7E5E1" d="M21.206,21.892C19.054,16.209,34.351,5.22,39.182,10.257C44.591,15.897,24.037,29.37,21.206,21.892z"/>
	</g>
	<g enable-background="new    ">
		<path d="M79.651,48.18V25.278h-4.189v-4.57h4.189v-3.199c0-3.03,0.825-5.366,2.476-7.008s3.965-2.463,6.944-2.463
			c0.592,0,1.193,0.047,1.803,0.14s1.295,0.225,2.057,0.394l-0.635,4.773c-0.339-0.067-0.715-0.127-1.13-0.178
			c-0.415-0.051-0.859-0.076-1.333-0.076c-1.337,0-2.34,0.381-3.009,1.143c-0.669,0.762-1.003,1.854-1.003,3.275v3.199h5.586v4.57
			h-5.586V48.18H79.651z"/>
		<path d="M94.759,34.19c0-4.079,1.117-7.431,3.351-10.055c2.269-2.624,5.341-3.936,9.217-3.936c3.944,0,7.033,1.312,9.268,3.936
			c2.252,2.606,3.377,5.958,3.377,10.055v0.533c0,4.13-1.125,7.499-3.377,10.105c-2.234,2.59-5.307,3.885-9.217,3.885
			c-3.927,0-7.016-1.304-9.268-3.91c-2.234-2.606-3.351-5.967-3.351-10.08V34.19z M100.928,34.71c0,2.67,0.525,4.852,1.574,6.542
			c1.033,1.673,2.658,2.51,4.875,2.51c2.15,0,3.758-0.837,4.824-2.51c1.084-1.69,1.625-3.872,1.625-6.542v-0.533
			c0-2.619-0.541-4.775-1.625-6.466c-1.066-1.707-2.691-2.561-4.875-2.561c-2.149,0-3.758,0.854-4.824,2.561
			c-1.049,1.708-1.574,3.863-1.574,6.466V34.71z"/>
		<path d="M130.94,20.707l0.355,3.961c0.897-1.405,2.027-2.501,3.391-3.288c1.361-0.787,2.898-1.181,4.607-1.181
			c2.861,0,5.092,0.867,6.691,2.603s2.398,4.439,2.398,8.112V48.18h-6.17V30.965c0-2.065-0.428-3.533-1.281-4.405
			c-0.855-0.872-2.154-1.308-3.898-1.308c-1.201,0-2.276,0.267-3.225,0.8c-0.947,0.533-1.727,1.266-2.336,2.196V48.18h-6.17V20.707
			H130.94z"/>
		<path d="M161.383,13.979h-6.17V8.571h6.17V13.979z M161.383,48.18h-6.17V20.707h6.17V48.18z"/>
		<path d="M167.147,34.19c0-4.079,1.117-7.431,3.352-10.055c2.269-2.624,5.341-3.936,9.217-3.936c3.944,0,7.033,1.312,9.268,3.936
			c2.252,2.606,3.377,5.958,3.377,10.055v0.533c0,4.13-1.125,7.499-3.377,10.105c-2.234,2.59-5.307,3.885-9.217,3.885
			c-3.927,0-7.016-1.304-9.268-3.91c-2.234-2.606-3.352-5.967-3.352-10.08V34.19z M173.317,34.71c0,2.67,0.525,4.852,1.574,6.542
			c1.033,1.673,2.658,2.51,4.875,2.51c2.15,0,3.758-0.837,4.824-2.51c1.084-1.69,1.625-3.872,1.625-6.542v-0.533
			c0-2.619-0.541-4.775-1.625-6.466c-1.066-1.707-2.691-2.561-4.875-2.561c-2.149,0-3.758,0.854-4.824,2.561
			c-1.049,1.708-1.574,3.863-1.574,6.466V34.71z"/>
	</g>
</g>
</svg>
