<?xml version="1.0" encoding="utf-8"?>
<!-- Generator: Adobe Illustrator 15.0.0, SVG Export Plug-In . SVG Version: 6.00 Build 0)  -->
<!DOCTYPE svg PUBLIC "-//W3C//DTD SVG 1.1//EN" "http://www.w3.org/Graphics/SVG/1.1/DTD/svg11.dtd">
<svg version="1.1" id="Calque_1" xmlns="http://www.w3.org/2000/svg" xmlns:xlink="http://www.w3.org/1999/xlink" x="0px" y="0px"
	 width="194.493px" height="62.271px" viewBox="0 0 194.493 62.271" enable-background="new 0 0 194.493 62.271"
	 xml:space="preserve">
<g>
	<g>
		<path fill="#00A99D" stroke="#00665C" stroke-width="3" stroke-miterlimit="10" d="M5.499,53.681
			c-11.845-9.755,14.093-48.42,30.942-34.542C47.682,28.397,19.509,65.222,5.499,53.681z"/>
		<path fill="#B7E5E1" d="M16.418,30.595c-1.601-4.229,9.781-12.406,13.375-8.658C33.818,26.135,18.525,36.159,16.418,30.595z"/>
	</g>
	<g enable-background="new    ">
		<path d="M55.318,55.048V37.155h-3.446v-3.57h3.446v-2.499c0-2.367,0.679-4.191,2.036-5.475c1.358-1.283,3.262-1.924,5.712-1.924
			c0.487,0,0.981,0.037,1.483,0.109c0.502,0.073,1.065,0.176,1.692,0.308l-0.522,3.728c-0.278-0.052-0.588-0.099-0.929-0.139
			s-0.707-0.06-1.096-0.06c-1.1,0-1.925,0.298-2.475,0.894s-0.825,1.448-0.825,2.558v2.499h4.595v3.57h-4.595v17.893H55.318z"/>
		<path d="M67.744,44.118c0-3.188,0.919-5.807,2.756-7.855c1.867-2.051,4.394-3.075,7.581-3.075c3.244,0,5.785,1.024,7.624,3.075
			c1.853,2.035,2.777,4.654,2.777,7.855v0.416c0,3.227-0.925,5.859-2.777,7.895c-1.838,2.023-4.366,3.035-7.582,3.035
			c-3.229,0-5.771-1.02-7.623-3.055c-1.837-2.035-2.756-4.662-2.756-7.875V44.118z M72.819,44.524c0,2.086,0.432,3.791,1.295,5.109
			c0.85,1.309,2.187,1.963,4.01,1.963c1.768,0,3.091-0.654,3.968-1.963c0.892-1.318,1.337-3.023,1.337-5.109v-0.418
			c0-2.045-0.445-3.729-1.337-5.051c-0.877-1.333-2.214-2-4.01-2c-1.769,0-3.092,0.667-3.968,2
			c-0.863,1.334-1.295,3.018-1.295,5.051V44.524z"/>
		<path d="M97.504,33.585l0.292,3.094c0.737-1.098,1.667-1.953,2.789-2.568c1.12-0.615,2.384-0.923,3.79-0.923
			c2.353,0,4.188,0.678,5.503,2.033c1.315,1.356,1.972,3.468,1.972,6.337v13.49h-5.074V41.598c0-1.613-0.353-2.76-1.054-3.441
			c-0.702-0.682-1.771-1.021-3.205-1.021c-0.988,0-1.874,0.209-2.653,0.624c-0.779,0.417-1.421,0.989-1.922,1.716v15.572h-5.075
			V33.585H97.504z"/>
		<path d="M122.545,28.328h-5.075v-4.225h5.075V28.328z M122.545,55.048h-5.075V33.585h5.075V55.048z"/>
		<path d="M127.286,44.118c0-3.188,0.919-5.807,2.757-7.855c1.867-2.051,4.394-3.075,7.581-3.075c3.245,0,5.785,1.024,7.624,3.075
			c1.852,2.035,2.777,4.654,2.777,7.855v0.416c0,3.227-0.926,5.859-2.777,7.895c-1.837,2.023-4.366,3.035-7.581,3.035
			c-3.23,0-5.771-1.02-7.624-3.055c-1.837-2.035-2.757-4.662-2.757-7.875V44.118z M132.361,44.524c0,2.086,0.432,3.791,1.295,5.109
			c0.85,1.309,2.187,1.963,4.01,1.963c1.769,0,3.091-0.654,3.968-1.963c0.892-1.318,1.337-3.023,1.337-5.109v-0.418
			c0-2.045-0.445-3.729-1.337-5.051c-0.877-1.333-2.214-2-4.01-2c-1.768,0-3.091,0.667-3.968,2
			c-0.863,1.334-1.295,3.018-1.295,5.051V44.524z"/>
	</g>
</g>
</svg>
