<svg xmlns="http://www.w3.org/2000/svg" width="194.493" height="62.271"><path fill="#00A99D" stroke="#00665C" stroke-width="5" stroke-miterlimit="10" d="M6.53 52.919C-9.389 39.808 25.47-12.155 48.115 6.496 63.222 18.938 25.36 68.429 6.53 52.919z"/><path fill="#B7E5E1" d="M21.206 21.892C19.054 16.209 34.351 5.22 39.182 10.257c5.409 5.64-15.145 19.113-17.976 11.635z"/><path d="M79.651 48.18V25.278h-4.189v-4.57h4.189v-3.199c0-3.03.825-5.366 2.476-7.008s3.965-2.463 6.944-2.463c.592 0 1.193.047 1.803.14s1.295.225 2.057.394l-.635 4.773a15.756 15.756 0 0 0-1.13-.178 10.948 10.948 0 0 0-1.333-.076c-1.337 0-2.34.381-3.009 1.143s-1.003 1.854-1.003 3.275v3.199h5.586v4.57h-5.586V48.18h-6.17zm15.108-13.99c0-4.079 1.117-7.431 3.351-10.055 2.269-2.624 5.341-3.936 9.217-3.936 3.944 0 7.033 1.312 9.268 3.936 2.252 2.606 3.377 5.958 3.377 10.055v.533c0 4.13-1.125 7.499-3.377 10.105-2.234 2.59-5.307 3.885-9.217 3.885-3.927 0-7.016-1.304-9.268-3.91-2.234-2.606-3.351-5.967-3.351-10.08v-.533zm6.169.52c0 2.67.525 4.852 1.574 6.542 1.033 1.673 2.658 2.51 4.875 2.51 2.15 0 3.758-.837 4.824-2.51 1.084-1.69 1.625-3.872 1.625-6.542v-.533c0-2.619-.541-4.775-1.625-6.466-1.066-1.707-2.691-2.561-4.875-2.561-2.149 0-3.758.854-4.824 2.561-1.049 1.708-1.574 3.863-1.574 6.466v.533zm30.012-14.003l.355 3.961c.897-1.405 2.027-2.501 3.391-3.288 1.361-.787 2.898-1.181 4.607-1.181 2.861 0 5.092.867 6.691 2.603s2.398 4.439 2.398 8.112V48.18h-6.17V30.965c0-2.065-.428-3.533-1.281-4.405-.855-.872-2.154-1.308-3.898-1.308-1.201 0-2.276.267-3.225.8a6.677 6.677 0 0 0-2.336 2.196V48.18h-6.17V20.707h5.638zm30.443-6.728h-6.17V8.571h6.17v5.408zm0 34.201h-6.17V20.707h6.17V48.18zm5.764-13.99c0-4.079 1.117-7.431 3.352-10.055 2.269-2.624 5.341-3.936 9.217-3.936 3.944 0 7.033 1.312 9.268 3.936 2.252 2.606 3.377 5.958 3.377 10.055v.533c0 4.13-1.125 7.499-3.377 10.105-2.234 2.59-5.307 3.885-9.217 3.885-3.927 0-7.016-1.304-9.268-3.91-2.234-2.606-3.352-5.967-3.352-10.08v-.533zm6.17.52c0 2.67.525 4.852 1.574 6.542 1.033 1.673 2.658 2.51 4.875 2.51 2.15 0 3.758-.837 4.824-2.51 1.084-1.69 1.625-3.872 1.625-6.542v-.533c0-2.619-.541-4.775-1.625-6.466-1.066-1.707-2.691-2.561-4.875-2.561-2.149 0-3.758.854-4.824 2.561-1.049 1.708-1.574 3.863-1.574 6.466v.533z"/></svg>