<svg xmlns="http://www.w3.org/2000/svg" width="194.493" height="62.271"><path fill="#00A99D" stroke="#00665C" stroke-width="3" stroke-miterlimit="10" d="M5.499 53.681c-11.845-9.755 14.093-48.42 30.942-34.542 11.241 9.258-16.932 46.083-30.942 34.542z"/><path fill="#B7E5E1" d="M16.418 30.595c-1.601-4.229 9.781-12.406 13.375-8.658 4.025 4.198-11.268 14.222-13.375 8.658z"/><path d="M55.318 55.048V37.155h-3.446v-3.57h3.446v-2.499c0-2.367.679-4.191 2.036-5.475 1.358-1.283 3.262-1.924 5.712-1.924.487 0 .981.037 1.483.109a27.56 27.56 0 0 1 1.692.308l-.522 3.728c-.278-.052-.588-.099-.929-.139s-.707-.06-1.096-.06c-1.1 0-1.925.298-2.475.894s-.825 1.448-.825 2.558v2.499h4.595v3.57h-4.595v17.893h-5.076zm12.426-10.93c0-3.188.919-5.807 2.756-7.855 1.867-2.051 4.394-3.075 7.581-3.075 3.244 0 5.785 1.024 7.624 3.075 1.853 2.035 2.777 4.654 2.777 7.855v.416c0 3.227-.925 5.859-2.777 7.895-1.838 2.023-4.366 3.035-7.582 3.035-3.229 0-5.771-1.02-7.623-3.055-1.837-2.035-2.756-4.662-2.756-7.875v-.416zm5.075.406c0 2.086.432 3.791 1.295 5.109.85 1.309 2.187 1.963 4.01 1.963 1.768 0 3.091-.654 3.968-1.963.892-1.318 1.337-3.023 1.337-5.109v-.418c0-2.045-.445-3.729-1.337-5.051-.877-1.333-2.214-2-4.01-2-1.769 0-3.092.667-3.968 2-.863 1.334-1.295 3.018-1.295 5.051v.418zm24.685-10.939l.292 3.094a7.891 7.891 0 0 1 2.789-2.568c1.12-.615 2.384-.923 3.79-.923 2.353 0 4.188.678 5.503 2.033 1.315 1.356 1.972 3.468 1.972 6.337v13.49h-5.074v-13.45c0-1.613-.353-2.76-1.054-3.441-.702-.682-1.771-1.021-3.205-1.021-.988 0-1.874.209-2.653.624a5.393 5.393 0 0 0-1.922 1.716v15.572h-5.075V33.585h4.637zm25.041-5.257h-5.075v-4.225h5.075v4.225zm0 26.72h-5.075V33.585h5.075v21.463zm4.741-10.93c0-3.188.919-5.807 2.757-7.855 1.867-2.051 4.394-3.075 7.581-3.075 3.245 0 5.785 1.024 7.624 3.075 1.852 2.035 2.777 4.654 2.777 7.855v.416c0 3.227-.926 5.859-2.777 7.895-1.837 2.023-4.366 3.035-7.581 3.035-3.23 0-5.771-1.02-7.624-3.055-1.837-2.035-2.757-4.662-2.757-7.875v-.416zm5.075.406c0 2.086.432 3.791 1.295 5.109.85 1.309 2.187 1.963 4.01 1.963 1.769 0 3.091-.654 3.968-1.963.892-1.318 1.337-3.023 1.337-5.109v-.418c0-2.045-.445-3.729-1.337-5.051-.877-1.333-2.214-2-4.01-2-1.768 0-3.091.667-3.968 2-.863 1.334-1.295 3.018-1.295 5.051v.418z"/></svg>